<?xml version="1.0"?>
<svg xmlns="http://www.w3.org/2000/svg" viewBox="0 0 128 128">
    <path d="M 3 5.8789062 C 1.346 5.8789062 0 7.2249063 0 8.8789062 L 0 50.878906 C 0 52.532906 1.346 53.878906 3 53.878906 L 39.990234 53.878906 C 42.290234 57.547906 46.359 60 51 60 C 58.168 60 64 54.168 64 47 C 64 41.603 60.693 36.966906 56 35.003906 L 56 8.8789062 C 56 7.2249063 54.654 5.8789062 53 5.8789062 L 3 5.8789062 z M 3 7.8789062 L 53 7.8789062 C 53.552 7.8789062 54 8.3279062 54 8.8789062 L 54 15.878906 L 2 15.878906 L 2 8.8789062 C 2 8.3279062 2.448 7.8789062 3 7.8789062 z M 5 9.8789062 C 4.447 9.8789062 4 10.326906 4 10.878906 L 4 12.878906 C 4 13.430906 4.447 13.878906 5 13.878906 C 5.553 13.878906 6 13.430906 6 12.878906 L 6 10.878906 C 6 10.326906 5.553 9.8789062 5 9.8789062 z M 10 9.8789062 C 9.447 9.8789062 9 10.326906 9 10.878906 L 9 12.878906 C 9 13.430906 9.447 13.878906 10 13.878906 C 10.553 13.878906 11 13.430906 11 12.878906 L 11 10.878906 C 11 10.326906 10.553 9.8789062 10 9.8789062 z M 15 9.8789062 C 14.447 9.8789062 14 10.326906 14 10.878906 L 14 12.878906 C 14 13.430906 14.447 13.878906 15 13.878906 C 15.553 13.878906 16 13.430906 16 12.878906 L 16 10.878906 C 16 10.326906 15.553 9.8789062 15 9.8789062 z M 20 9.8789062 C 19.447 9.8789062 19 10.326906 19 10.878906 L 19 12.878906 C 19 13.430906 19.447 13.878906 20 13.878906 C 20.553 13.878906 21 13.430906 21 12.878906 L 21 10.878906 C 21 10.326906 20.553 9.8789062 20 9.8789062 z M 25 9.8789062 C 24.447 9.8789062 24 10.326906 24 10.878906 L 24 12.878906 C 24 13.430906 24.447 13.878906 25 13.878906 C 25.553 13.878906 26 13.430906 26 12.878906 L 26 10.878906 C 26 10.326906 25.553 9.8789062 25 9.8789062 z M 30 9.8789062 C 29.447 9.8789062 29 10.326906 29 10.878906 L 29 12.878906 C 29 13.430906 29.447 13.878906 30 13.878906 C 30.553 13.878906 31 13.430906 31 12.878906 L 31 10.878906 C 31 10.326906 30.553 9.8789062 30 9.8789062 z M 35 9.8789062 C 34.447 9.8789062 34 10.326906 34 10.878906 L 34 12.878906 C 34 13.430906 34.447 13.878906 35 13.878906 C 35.553 13.878906 36 13.430906 36 12.878906 L 36 10.878906 C 36 10.326906 35.553 9.8789062 35 9.8789062 z M 40 9.8789062 C 39.447 9.8789062 39 10.326906 39 10.878906 L 39 12.878906 C 39 13.430906 39.447 13.878906 40 13.878906 C 40.553 13.878906 41 13.430906 41 12.878906 L 41 10.878906 C 41 10.326906 40.553 9.8789062 40 9.8789062 z M 45 9.8789062 C 44.447 9.8789062 44 10.326906 44 10.878906 L 44 12.878906 C 44 13.430906 44.447 13.878906 45 13.878906 C 45.553 13.878906 46 13.430906 46 12.878906 L 46 10.878906 C 46 10.326906 45.553 9.8789062 45 9.8789062 z M 50 9.8789062 C 49.447 9.8789062 49 10.326906 49 10.878906 L 49 12.878906 C 49 13.430906 49.447 13.878906 50 13.878906 C 50.553 13.878906 51 13.430906 51 12.878906 L 51 10.878906 C 51 10.326906 50.553 9.8789062 50 9.8789062 z M 2 17.878906 L 54 17.878906 L 54 34.363281 C 53.035 34.134281 52.034 34 51 34 C 43.832 34 38 39.832 38 47 C 38 48.726 38.344984 50.370906 38.958984 51.878906 L 3 51.878906 C 2.448 51.878906 2 51.429906 2 50.878906 L 2 17.878906 z M 11 22 C 10.447 22 10 22.448 10 23 L 10 28 L 7 28 C 6.447 28 6 28.448 6 29 C 6 29.552 6.447 30 7 30 L 10 30 L 10 40 L 7.25 40 C 6.697 40 6.25 40.448 6.25 41 C 6.25 41.552 6.697 42 7.25 42 L 10 42 L 10 47 C 10 47.552 10.447 48 11 48 C 11.553 48 12 47.552 12 47 L 12 42 L 28 42 L 28 47 C 28 47.552 28.447 48 29 48 C 29.553 48 30 47.552 30 47 L 30 42 L 37.167969 42 C 37.720969 42 38.167969 41.552 38.167969 41 C 38.167969 40.448 37.720969 40 37.167969 40 L 30 40 L 30 30 L 44 30 L 44 33 C 44 33.552 44.447 34 45 34 C 45.553 34 46 33.552 46 33 L 46 30 L 48.917969 30 C 49.470969 30 49.917969 29.552 49.917969 29 C 49.917969 28.448 49.470969 28 48.917969 28 L 46 28 L 46 23 C 46 22.448 45.553 22 45 22 C 44.447 22 44 22.448 44 23 L 44 28 L 30 28 L 30 23 C 30 22.448 29.553 22 29 22 C 28.447 22 28 22.448 28 23 L 28 28 L 12 28 L 12 23 C 12 22.448 11.553 22 11 22 z M 12 30 L 28 30 L 28 40 L 12 40 L 12 30 z M 51 36 C 57.065 36 62 40.935 62 47 C 62 53.065 57.065 58 51 58 C 44.935 58 40 53.065 40 47 C 40 40.935 44.935 36 51 36 z M 51 39 C 50.447 39 50 39.448 50 40 L 50 47 C 50 47.13 50.026172 47.260813 50.076172 47.382812 C 50.127172 47.505812 50.201922 47.614031 50.294922 47.707031 L 55.292969 52.707031 C 55.487969 52.902031 55.744 53 56 53 C 56.256 53 56.512031 52.902031 56.707031 52.707031 C 57.098031 52.316031 57.098031 51.683969 56.707031 51.292969 L 52 46.585938 L 52 40 C 52 39.448 51.553 39 51 39 z"
    fill="black"
    stroke="black"
    stroke-width=""/>
</svg>
