<!DOCTYPE svg PUBLIC "-//W3C//DTD SVG 1.1//EN" "http://www.w3.org/Graphics/SVG/1.1/DTD/svg11.dtd">
<svg xmlns="http://www.w3.org/2000/svg" viewBox="0 0 512 512">
<path d="M187 18.603c-11.955 3.199-21.886 11.757-28.83 24.846-5.432 10.238-6.776 10.945-21.989 11.58-19.071.795-27.009 6.441-27.982 19.903l-.43 5.942-31.635.313L44.5 81.5l-5.675 2.66c-7.946 3.725-14.222 9.87-18.075 17.696l-3.25 6.602V468.5l2.722 5.538c3.474 7.066 10.482 14.074 17.656 17.655L43.5 494.5h312.042l6.664-3.281c8.111-3.993 14.766-11.031 17.983-19.017 2.249-5.586 2.306-6.64 2.803-51.702l.508-46 54.613-87.5c30.037-48.125 55.181-89.253 55.876-91.396 2.738-8.45-.37-19.86-7.151-26.248-3.57-3.363-27.696-18.461-34.338-21.489-8.768-3.996-22.902-1.391-29.279 5.398-1.165 1.24-10.691 15.945-21.17 32.679L383 216.369v-50.975c0-57.123-.15-58.632-6.785-68.384C366.804 83.177 359.268 81 320.79 81H292v-2.557c0-9.4-6.49-19.059-14.681-21.85-3.058-1.042-8.16-1.594-14.747-1.595-13.754-.002-15.786-1.096-21.354-11.498C229.852 22.267 209.034 12.708 187 18.603m2.465 14.361c-8.344 2.733-13.383 7.385-18.359 16.95-7.728 14.853-14.5 19.061-30.707 19.076-18.025.018-18.399.486-18.399 23.057V108h155V90.655c0-22.038.957-20.84-17.306-21.653-18.209-.811-23.401-3.866-30.828-18.142-8.557-16.449-23.333-23.16-39.401-17.896m3.65 20.485c-16.091 5.209-20.102 25.703-7.192 36.753C200.097 102.334 221.2 92.642 221.2 74c0-14.843-14.021-25.103-28.085-20.551m.958 16.186c-3.908 4.968-.813 11.365 5.5 11.365 4.291 0 7.427-2.956 7.427-7 0-6.687-8.771-9.649-12.927-4.365M49 96.09c-6.02 1.187-11.949 5.517-15 10.954l-2.5 4.456-.285 174.5c-.316 194.237-.815 180.495 6.83 188.141 7.402 7.401-2.299 7.009 164.955 6.666l149.5-.307 4.772-2.805c2.625-1.543 6-4.66 7.5-6.926l2.728-4.12.284-38.324c.156-21.079 0-38.325-.347-38.325-.346 0-12.628 6.075-27.292 13.5-27.837 14.095-29.853 14.792-33.181 11.464-1.983-1.983-2.028-2.962-1.75-38.289l.286-36.254 31.25-50.023L368 240.375v-64.227c0-72.164.412-68.067-7.552-75.06-6.123-5.376-6.806-5.48-38.596-5.875l-29.647-.368-.353 9.006c-.379 9.688-1.53 12.326-7.237 16.587-2.737 2.043-3.501 2.062-84.938 2.062H117.5l-3.252-2.32c-4.776-3.406-5.694-5.71-6.248-15.68l-.5-9-27-.148c-14.85-.082-29.025.251-31.5.738m119.017 64.186c-5.273 2.689-4.938 10.663.536 12.744 1.6.608 31.015.98 77.558.98h74.98l2.454-2.455c2.945-2.944 3.143-6.474.544-9.684l-1.912-2.361-75.838-.245c-59.621-.193-76.37.025-78.322 1.021m267.956 1.424c-3.044 2.092-3.909 3.254-11.691 15.707-5.63 9.009-6.056 10.059-4.5 11.113 4.127 2.795 43.161 26.521 44.439 27.011.971.373 3.726-3.146 8.802-11.244 11.915-19.009 11.332-20.708-11.972-34.887-16.537-10.062-20.066-11.146-25.078-7.7m-331.392 18.325c-13.155 9.886-24.18 17.953-24.5 17.927-.319-.026-3.281-3.739-6.581-8.25-6.735-9.206-10.318-10.884-14.441-6.761-3.789 3.789-2.727 7.059 6.468 19.925 8.867 12.407 11.365 14.333 15.629 12.05 3.462-1.852 53.194-39.002 55.094-41.155 3.826-4.335.24-11.805-5.635-11.736-1.163.014-12.878 8.114-26.034 18m262.433 88.987c-23.697 37.957-43.304 69.58-43.57 70.274-.778 2.026 45.642 30.087 47.11 28.478C372.298 365.853 457 229.934 457 229.047c0-.666-45.44-29.047-46.505-29.047-.217 0-19.784 31.056-43.481 69.012m-198.699-67.019c-4.707 1.926-5.634 7.779-1.835 11.578l2.481 2.481 52.608-.276 52.609-.276 1.911-2.361c2.431-3.003 2.431-6.275 0-9.278l-1.911-2.361-51.839-.2c-28.691-.111-52.815.199-54.024.693m-63.858 83.979C91.281 295.857 80.275 303.945 80 303.946c-.275.001-2.075-2.336-4-5.193-8.035-11.927-12.35-14.403-17-9.753-3.612 3.612-2.575 6.902 6.021 19.091 8.628 12.237 11.705 14.811 15.587 13.042 2.946-1.343 54.445-39.822 56.142-41.949 3.216-4.03-.531-11.184-5.858-11.184-1.657 0-10.413 5.953-26.435 17.972m61.998-13.517c-2.973 2.973-3.158 6.842-.455 9.545 1.965 1.965 3.333 2 79 2s77.035-.035 79-2c2.878-2.878 2.589-7.392-.635-9.927-2.613-2.056-3.263-2.073-78.545-2.073h-75.911l-2.454 2.455m0 42c-2.973 2.973-3.158 6.842-.455 9.545 1.95 1.95 3.333 2 54.961 2h52.961l2.039-2.189c2.726-2.925 2.573-6.368-.416-9.356L273.091 312H168.909l-2.454 2.455m153.193 46.795c-.347 2.887-.635 12.34-.639 21.005L319 398.01l19.13-9.575c10.521-5.266 18.734-9.928 18.25-10.358-.971-.865-35.4-22.077-35.832-22.077-.148 0-.553 2.363-.9 5.25M65 376c-4.419 4.419-3.013 7.297 9.983 20.443l11.984 12.121-11.984 11.953c-12.967 12.933-14.461 15.93-9.97 19.995 4.493 4.066 7.242 2.7 19.82-9.845C91.266 424.25 96.967 419 97.5 419c.533 0 6.234 5.25 12.667 11.667 12.865 12.831 16.007 14.307 19.989 9.389 3.7-4.569 2.653-6.558-10.406-19.781l-12.25-12.404 11.737-11.459c12.707-12.406 14.198-15.006 11.044-19.249-4.329-5.825-7.088-4.659-20.621 8.711L97.5 397.888l-12.153-11.944C72.19 373.013 69.367 371.633 65 376m101 7c-2.878 2.878-2.589 7.392.635 9.927 2.589 2.037 3.543 2.073 54.545 2.073h51.911l2.454-2.455c3.256-3.255 2.816-8.268-.945-10.78-.605-.404-24.838-.741-53.85-.75-51.427-.015-52.8.035-54.75 1.985m0 42c-2.698 2.698-2.556 7.129.314 9.826 3.484 3.272 73.429 3.431 76.686.174 2.554-2.554 2.645-8.106.171-10.345-3.097-2.803-74.341-2.485-77.171.345" fill-rule="evenodd"/>
</svg>